REM DIRINDEX 1\2,1\3,1\4
REM DIRNAME cjc105,folder01,folder02,folder03
TITLE ""
FILE "DISC1Track04.mp3" MP3
  TRACK 01 AUDIO
    TITLE "0:"
    INDEX 01 00:00:00
  TRACK 02 AUDIO
    TITLE "4:cjc105_0226"
    INDEX 01 00:00:17
  TRACK 03 AUDIO
    TITLE "0:"
    INDEX 01 00:07:45
  TRACK 04 AUDIO
    TITLE "2:cjc105_0227"
    INDEX 01 00:08:13
  TRACK 05 AUDIO
    TITLE "2:cjc105_0228"
    INDEX 01 00:11:29
  TRACK 06 AUDIO
    TITLE "2:cjc105_0229"
    INDEX 01 00:14:43
  TRACK 07 AUDIO
    TITLE "2:cjc105_0230"
    INDEX 01 00:18:07
  TRACK 08 AUDIO
    TITLE "2:cjc105_0231"
    INDEX 01 00:21:15
  TRACK 09 AUDIO
    TITLE "2:cjc105_0232"
    INDEX 01 00:23:69
  TRACK 10 AUDIO
    TITLE "2:cjc105_0233"
    INDEX 01 00:27:24
  TRACK 11 AUDIO
    TITLE "2:cjc105_0234"
    INDEX 01 00:30:32
  TRACK 12 AUDIO
    TITLE "2:cjc105_0235"
    INDEX 01 00:32:72
  TRACK 13 AUDIO
    TITLE "2:cjc105_0236"
    INDEX 01 00:35:63
  TRACK 14 AUDIO
    TITLE "2:cjc105_0237"
    INDEX 01 00:38:65
  TRACK 15 AUDIO
    TITLE "2:cjc105_0238"
    INDEX 01 00:41:73
  TRACK 16 AUDIO
    TITLE "2:cjc105_0239"
    INDEX 01 00:44:69
  TRACK 17 AUDIO
    TITLE "2:cjc105_0240"
    INDEX 01 00:47:60
  TRACK 18 AUDIO
    TITLE "2:cjc105_0241"
    INDEX 01 00:50:74
  TRACK 19 AUDIO
    TITLE "2:cjc105_0242"
    INDEX 01 00:53:66
  TRACK 20 AUDIO
    TITLE "2:cjc105_0243"
    INDEX 01 00:56:72
  TRACK 21 AUDIO
    TITLE "2:cjc105_0244"
    INDEX 01 00:59:45
  TRACK 22 AUDIO
    TITLE "2:cjc105_0245"
    INDEX 01 01:02:42
  TRACK 23 AUDIO
    TITLE "2:cjc105_0246"
    INDEX 01 01:05:69
  TRACK 24 AUDIO
    TITLE "2:cjc105_0247"
    INDEX 01 01:08:64
  TRACK 25 AUDIO
    TITLE "2:cjc105_0248"
    INDEX 01 01:12:21
  TRACK 26 AUDIO
    TITLE "2:cjc105_0249"
    INDEX 01 01:15:23
  TRACK 27 AUDIO
    TITLE "2:cjc105_0250"
    INDEX 01 01:18:27
  TRACK 28 AUDIO
    TITLE "2:cjc105_0251"
    INDEX 01 01:21:21
  TRACK 29 AUDIO
    TITLE "2:cjc105_0252"
    INDEX 01 01:24:61
  TRACK 30 AUDIO
    TITLE "2:cjc105_0253"
    INDEX 01 01:28:12
  TRACK 31 AUDIO
    TITLE "2:cjc105_0254"
    INDEX 01 01:31:12
  TRACK 32 AUDIO
    TITLE "2:cjc105_0255"
    INDEX 01 01:34:20
  TRACK 33 AUDIO
    TITLE "2:cjc105_0256"
    INDEX 01 01:37:32
  TRACK 34 AUDIO
    TITLE "2:cjc105_0257"
    INDEX 01 01:40:29
  TRACK 35 AUDIO
    TITLE "2:cjc105_0258"
    INDEX 01 01:43:33
  TRACK 36 AUDIO
    TITLE "2:cjc105_0259"
    INDEX 01 01:47:01
  TRACK 37 AUDIO
    TITLE "2:cjc105_0260"
    INDEX 01 01:50:06
  TRACK 38 AUDIO
    TITLE "2:cjc105_0261"
    INDEX 01 01:53:31
  TRACK 39 AUDIO
    TITLE "2:cjc105_0262"
    INDEX 01 01:56:57
  TRACK 40 AUDIO
    TITLE "2:cjc105_0263"
    INDEX 01 01:59:61
  TRACK 41 AUDIO
    TITLE "2:cjc105_0264"
    INDEX 01 02:02:66
  TRACK 42 AUDIO
    TITLE "2:cjc105_0265"
    INDEX 01 02:06:42
  TRACK 43 AUDIO
    TITLE "2:cjc105_0266"
    INDEX 01 02:09:71
  TRACK 44 AUDIO
    TITLE "2:cjc105_0267"
    INDEX 01 02:12:68
  TRACK 45 AUDIO
    TITLE "2:cjc105_0268"
    INDEX 01 02:16:07
  TRACK 46 AUDIO
    TITLE "2:cjc105_0269"
    INDEX 01 02:19:23
  TRACK 47 AUDIO
    TITLE "2:cjc105_0270"
    INDEX 01 02:22:31
  TRACK 48 AUDIO
    TITLE "2:cjc105_0271"
    INDEX 01 02:25:67
  TRACK 49 AUDIO
    TITLE "2:cjc105_0272"
    INDEX 01 02:29:23
  TRACK 50 AUDIO
    TITLE "2:cjc105_0273"
    INDEX 01 02:32:33
  TRACK 51 AUDIO
    TITLE "2:cjc105_0274"
    INDEX 01 02:35:51
  TRACK 52 AUDIO
    TITLE "2:cjc105_0275"
    INDEX 01 02:38:55
  TRACK 53 AUDIO
    TITLE "2:cjc105_0276"
    INDEX 01 02:41:73
  TRACK 54 AUDIO
    TITLE "2:cjc105_0277"
    INDEX 01 02:45:30
  TRACK 55 AUDIO
    TITLE "2:cjc105_0278"
    INDEX 01 02:48:03
  TRACK 56 AUDIO
    TITLE "2:cjc105_0279"
    INDEX 01 02:51:23
  TRACK 57 AUDIO
    TITLE "2:cjc105_0280"
    INDEX 01 02:54:51
  TRACK 58 AUDIO
    TITLE "2:cjc105_0281"
    INDEX 01 02:57:59
  TRACK 59 AUDIO
    TITLE "2:cjc105_0282"
    INDEX 01 03:00:49
  TRACK 60 AUDIO
    TITLE "2:cjc105_0283"
    INDEX 01 03:04:16
  TRACK 61 AUDIO
    TITLE "2:cjc105_0284"
    INDEX 01 03:06:73
  TRACK 62 AUDIO
    TITLE "2:cjc105_0285"
    INDEX 01 03:09:74
  TRACK 63 AUDIO
    TITLE "2:cjc105_0286"
    INDEX 01 03:13:21
  TRACK 64 AUDIO
    TITLE "2:cjc105_0287"
    INDEX 01 03:16:38
  TRACK 65 AUDIO
    TITLE "2:cjc105_0288"
    INDEX 01 03:19:21
  TRACK 66 AUDIO
    TITLE "2:cjc105_0289"
    INDEX 01 03:22:43
  TRACK 67 AUDIO
    TITLE "2:cjc105_0290"
    INDEX 01 03:25:57
  TRACK 68 AUDIO
    TITLE "2:cjc105_0291"
    INDEX 01 03:28:71
  TRACK 69 AUDIO
    TITLE "2:cjc105_0292"
    INDEX 01 03:32:14
  TRACK 70 AUDIO
    TITLE "2:cjc105_0293"
    INDEX 01 03:35:50
  TRACK 71 AUDIO
    TITLE "2:cjc105_0294"
    INDEX 01 03:38:60
  TRACK 72 AUDIO
    TITLE "2:cjc105_0295"
    INDEX 01 03:41:54
  TRACK 73 AUDIO
    TITLE "2:cjc105_0296"
    INDEX 01 03:44:43
  TRACK 74 AUDIO
    TITLE "2:cjc105_0297"
    INDEX 01 03:47:66
  TRACK 75 AUDIO
    TITLE "2:cjc105_0298"
    INDEX 01 03:51:05
  TRACK 76 AUDIO
    TITLE "2:cjc105_0299"
    INDEX 01 03:53:73
  TRACK 77 AUDIO
    TITLE "2:cjc105_0300"
    INDEX 01 03:57:22
  TRACK 78 AUDIO
    TITLE "2:cjc105_0301"
    INDEX 01 04:00:28
  TRACK 79 AUDIO
    TITLE "2:cjc105_0302"
    INDEX 01 04:03:56
  TRACK 80 AUDIO
    TITLE "0:"
    INDEX 01 04:06:70
